<?xml version="1.0" standalone="no"?> <!DOCTYPE svg PUBLIC "-//W3C//DTD SVG 1.0//EN" "http://www.w3.org/TR/2001/REC-SVG-20010904/DTD/svg10.dtd" > <svg xmlns="http://www.w3.org/2000/svg" width="100%" height="100%">
<defs >
<font id="Lobster13Regular" horiz-adv-x="783" ><font-face
    font-family="Lobster 13"
    units-per-em="2048"
    panose-1="2 0 5 6 0 0 0 2 0 3"
    ascent="1536"
    descent="-512"
    alphabetic="0" />
<missing-glyph horiz-adv-x="786" />
<glyph unicode=" " glyph-name="space" horiz-adv-x="442" />
<glyph unicode="!" glyph-name="exclam" horiz-adv-x="456" d="M2 94T2 163T49 279Q100 326 166 326Q234 326 281 279T328 164Q328 98 281 47Q236 0 166 0T49 47ZM133 473L279 1434H573L307 473H133Z" />
<glyph unicode="&quot;" glyph-name="quotedbl" horiz-adv-x="858" d="M127 1149L252 1536H467L281 1149H127ZM449 1149L573 1536H788L602 1149H449Z" />
<glyph unicode="#" glyph-name="numbersign" horiz-adv-x="1347" d="M92 227L135 436H348L391 668H182L225 877H428L535 1470H715L582 877H797L903 1470H1083L950 877H1163L1122 668H905L854 436H1073L1032 227H807L745 -55H629L680 227H438L377 -55H260L311 227H92ZM485
436H717L760 668H537L485 436Z" />
<glyph unicode="$" glyph-name="dollar" horiz-adv-x="823" d="M49 455Q49 533 92 582T197 631Q240 631 262 617T285 580Q203 566 203 428Q203 344 289 303L362 705L303 752L242 803Q230 813 195 852Q168 881 156 915Q146 944 145 985Q145 1096 242 1171Q342 1251
461 1253L500 1470H618L567 1247Q745 1220 745 1077Q745 1003 719 963T647 922Q608 922 567 969Q616 996 616 1075Q616 1136 551 1165L477 836Q528 803 559 780Q577 766 629 719Q672 678 690 631Q708 582 709 522Q709 381 608 301Q508 223 340 219L281 -55H225L274
221Q49 240 49 455ZM340 1024Q340 956 397 899L446 1176Q340 1155 340 1024ZM358 295Q428 303 461 354T494 479Q494 563 434 635L358 295Z" />
<glyph unicode="%" glyph-name="percent" horiz-adv-x="1316" d="M219 999Q219 1187 309 1311Q401 1438 551 1438Q719 1438 719 1206Q719 1054 635 909Q553 766 416 766Q303 766 260 823Q219 878 219 999ZM248 0L1038 1536H1186L395 0H248ZM367 975Q367 842 422
842Q500 842 549 958Q596 1071 596 1237Q596 1366 545 1366T438 1282Q379 1194 371 1063Q367 998 367 975ZM727 233Q727 421 817 545Q909 672 1059 672Q1151 672 1198 612Q1247 551 1247 440Q1247 370 1229 297Q1213 229 1174 156Q1137 86 1073 43Q1007 0 924 0Q811
0 768 57Q727 112 727 233ZM864 209Q864 76 920 76Q1000 76 1042 186Q1087 303 1087 457Q1087 596 1030 596Q981 596 930 514Q881 434 868 297Q864 232 864 209Z" />
<glyph unicode="&amp;" glyph-name="ampersand" horiz-adv-x="1394" d="M23 401Q23 559 121 688T393 854Q190 965 190 1165Q190 1315 313 1425T645 1536Q807 1536 913 1468Q1022 1400 1022 1262Q1022 1074 879 1073Q809 1073 762 1126Q799 1136 825 1194Q852 1249
852 1294Q852 1446 717 1446Q606 1446 537 1372Q467 1300 467 1194Q467 1094 532 1008Q602 916 737 856Q553 778 469 670Q381 557 381 444Q381 329 451 252Q521 172 621 172Q746 172 848 262Q948 350 991 559Q952 559 920 563Q871 569 846 569Q715 569 653 477L639
479Q670 606 776 688Q880 768 1034 768Q1079 768 1114 764Q1167 758 1190 758Q1335 758 1384 846H1397Q1397 760 1303 672Q1207 582 1085 561Q1050 438 1010 352Q961 248 928 203Q881 140 831 100Q772 55 733 35Q692 15 633 2Q600 -4 537 -10Q512 -12 446 -12Q241
-12 133 109Q23 231 23 401Z" />
<glyph unicode="&apos;" glyph-name="quotesingle" horiz-adv-x="401" d="M31 1149L156 1536H371L184 1149H31Z" />
<glyph unicode="(" glyph-name="parenleft" horiz-adv-x="892" d="M283 205Q283 475 362 741Q442 1009 598 1227Q750 1438 950 1536L977 1454Q832 1382 702 1171Q575 966 504 688Q432 412 432 150Q432 -233 582 -453L514 -512Q283 -256 283 205Z" />
<glyph unicode=")" glyph-name="parenright" horiz-adv-x="843" d="M-59 -430Q166 -315 325 74T485 874Q485 1257 336 1477L403 1536Q634 1280 635 819Q635 549 555 281Q475 17 319 -203Q167 -414 -33 -512L-59 -430Z" />
<glyph unicode="*" glyph-name="asterisk" horiz-adv-x="1052" d="M176 1026L399 1155L176 1284L238 1391L457 1264V1540H588V1264L807 1391L868 1284L645 1155L868 1026L807 920L588 1047V770H457V1047L238 920L176 1026Z" />
<glyph unicode="+" glyph-name="plus" horiz-adv-x="1052" d="M109 420L158 649H420L475 899H707L651 649H911L864 420H602L547 168H315L371 420H109Z" />
<glyph unicode="," glyph-name="comma" horiz-adv-x="440" d="M49 154Q49 224 96 270T211 317Q277 317 313 274T350 162Q350 67 276 -53Q200 -178 84 -258Q66 -246 66 -223Q66 -188 119 -131T172 -37Q172 -14 145 4Q49 70 49 154Z" />
<glyph unicode="-" glyph-name="hyphen" horiz-adv-x="591" d="M39 455L76 616H485L451 455H39Z" />
<glyph unicode="." glyph-name="period" horiz-adv-x="536" d="M63 154Q63 217 111 268Q156 317 225 317Q293 317 342 268Q389 221 389 154Q389 84 342 39Q291 -8 225 -8Q157 -8 110 39T63 154Z" />
<glyph unicode="/" glyph-name="slash" horiz-adv-x="634" d="M23 -512L457 1536H604L170 -512H23Z" />
<glyph unicode="0" glyph-name="zero" horiz-adv-x="1116" d="M61 520Q61 796 145 1030Q227 1257 393 1399Q555 1536 772 1536Q1137 1536 1137 1001Q1137 841 1094 670Q1051 496 971 340T764 84Q633 -18 485 -18Q239 -18 150 113Q61 239 61 520ZM375 463Q375 154
496 154Q611 154 696 301T825 670T868 1133Q868 1274 846 1354Q826 1430 758 1430Q656 1430 533 1209T385 666Q375 512 375 463Z" />
<glyph unicode="1" glyph-name="one" horiz-adv-x="647" d="M43 0L313 1278H119L143 1372Q397 1372 664 1532L338 0H43Z" />
<glyph unicode="2" glyph-name="two" horiz-adv-x="1005" d="M-25 59Q-25 148 12 238Q51 330 109 399Q164 465 242 547L385 698Q461 780 518 858T614 1042Q651 1142 651 1255Q651 1327 612 1374Q572 1423 526 1423Q430 1423 395 1382T360 1257Q360 1214 378 1171T438
1118Q362 1048 281 1049Q220 1049 176 1098Q135 1145 135 1233Q135 1356 240 1444Q346 1534 557 1534Q946 1534 946 1204Q946 1075 887 961Q826 842 737 756Q651 672 549 590Q465 522 358 426Q262 338 217 270Q254 270 381 254Q522 236 586 233Q695 233 748 260Q803
289 893 375Q895 352 895 285Q895 119 846 49Q797 -23 651 -23Q538 -23 391 14T143 51Q127 51 92 41Q78 37 29 14Q-14 -4 -18 -6Q-25 28 -25 59Z" />
<glyph unicode="3" glyph-name="three" horiz-adv-x="1050" d="M12 319Q12 463 74 547Q135 631 254 631Q398 631 420 526Q342 520 299 477Q260 438 250 391T240 285Q240 189 287 154T422 119Q528 119 600 227T672 475Q672 600 606 707Q543 809 408 856Q574 902
666 1022Q756 1139 756 1262Q756 1338 723 1378Q688 1423 627 1423Q441 1423 440 1257Q440 1214 458 1171T518 1118Q442 1048 360 1049Q295 1049 256 1098Q215 1149 215 1233Q215 1352 328 1444Q439 1534 657 1534Q826 1534 922 1448T1018 1233Q1018 1127 946 1025T739
854Q865 814 930 725Q993 637 993 522Q993 329 838 158Q684 -10 465 -10Q407 -10 354 -4Q284 4 236 20Q171 42 125 76Q78 111 45 172Q12 235 12 319Z" />
<glyph unicode="4" glyph-name="four" horiz-adv-x="972" d="M16 563Q36 622 123 803Q205 971 258 1124Q315 1286 315 1413Q315 1481 301 1536Q395 1536 461 1485Q529 1434 528 1341Q528 1253 494 1159Q460 1067 420 1006L319 856Q253 760 229 715H549L715 1495L1018
1536L842 715H973L932 563H809L690 0H395L516 563H16Z" />
<glyph unicode="5" glyph-name="five" horiz-adv-x="1056" d="M31 297Q31 428 110 501T289 575Q421 575 442 471Q258 446 258 262Q258 176 311 139T442 102Q561 102 623 229Q686 362 686 532Q686 634 627 719Q570 801 463 801Q338 801 156 686L324 1503Q637 1468
692 1468Q856 1468 1024 1534Q1028 1473 1028 1466Q1028 1360 971 1292Q916 1229 803 1229Q727 1229 598 1253Q512 1269 451 1280L369 909Q498 972 623 973Q801 973 893 854Q985 733 985 545Q985 324 834 156Q684 -10 418 -10Q340 -10 274 0Q221 8 154 39Q97 66
63 133Q31 203 31 297Z" />
<glyph unicode="6" glyph-name="six" horiz-adv-x="1015" d="M33 395Q33 452 35 471Q68 954 254 1245T766 1536Q875 1536 938 1485T1001 1368Q1001 1315 954 1274Q905 1231 819 1229Q852 1260 852 1303Q852 1350 823 1380Q792 1413 750 1413Q717 1413 690 1405Q655
1395 600 1346Q539 1291 492 1208Q439 1114 391 946Q342 768 317 528Q307 409 307 369Q307 226 350 176Q395 125 477 125Q575 125 662 272Q750 424 750 582Q750 781 641 780Q537 780 461 625Q420 684 420 743Q420 831 506 889Q594 948 709 948Q844 948 915 846Q985
746 985 610Q985 352 821 170Q659 -10 432 -10Q313 -10 233 20Q157 49 111 113Q72 166 51 240Q33 307 33 395Z" />
<glyph unicode="7" glyph-name="seven" horiz-adv-x="948" d="M68 256Q68 350 104 461Q141 574 193 666Q248 764 340 891Q418 995 512 1110L713 1346Q624 1358 541 1358Q246 1358 115 1212Q99 1288 98 1331Q98 1431 164 1485Q227 1536 377 1536H1049L700 997Q467
626 432 543Q366 389 367 279Q367 162 467 80Q436 0 279 0Q179 0 124 55T68 256Z" />
<glyph unicode="8" glyph-name="eight" horiz-adv-x="1019" d="M-16 401Q-16 551 80 678T352 854Q178 954 178 1133Q178 1289 309 1411Q441 1534 635 1534Q821 1534 920 1450Q1022 1364 1022 1237Q1022 1131 946 1024Q874 922 735 854Q860 815 921 729T983 535Q983
336 817 164Q649 -10 416 -10Q215 -10 100 111Q-16 233 -16 401ZM281 324Q281 238 319 176Q356 119 426 119Q526 119 594 227T662 475Q662 674 532 784Q411 704 346 574T281 324ZM446 1171Q446 1013 555 924Q651 987 706 1091T762 1294Q762 1364 736 1403T655 1442Q557
1442 502 1362T446 1171Z" />
<glyph unicode="9" glyph-name="nine" horiz-adv-x="999" d="M55 164Q55 219 100 256Q147 295 233 297Q204 268 205 227Q205 181 236 147Q267 112 309 113Q317 113 346 117Q354 119 406 141Q451 161 481 193Q524 234 559 291Q604 361 637 449Q670 535 698 682Q727
832 739 997Q743 1099 743 1104Q743 1278 698 1341Q657 1400 563 1401Q465 1401 385 1260Q303 1115 303 956Q303 873 328 809Q353 746 418 745Q544 745 590 868Q633 815 633 766Q633 688 553 633T358 578Q217 578 144 686T70 936Q70 1192 223 1364T600 1536Q995
1536 995 1055Q995 748 911 506T670 127T301 -10Q192 -10 123 43Q55 94 55 164Z" />
<glyph unicode=":" glyph-name="colon" horiz-adv-x="544" d="M84 276Q84 339 131 391Q176 440 246 440Q314 440 362 391Q409 344 410 276Q410 206 362 162Q311 115 246 115Q178 115 131 161T84 276ZM186 768Q186 834 233 885Q278 932 348 932T465 885T512 768T465
653Q414 606 348 606Q280 606 233 653T186 768Z" />
<glyph unicode=";" glyph-name="semicolon" horiz-adv-x="563" d="M94 186Q94 249 141 301Q188 350 256 350Q322 350 358 307T395 195Q395 100 322 -20Q246 -145 129 -225Q111 -213 111 -190Q111 -155 164 -98T217 -4Q217 19 190 37Q94 102 94 186ZM193 678Q193
741 240 793Q287 842 354 842Q420 842 469 793T518 678Q518 610 469 563Q418 516 354 516Q286 516 240 563T193 678Z" />
<glyph unicode="&lt;" glyph-name="less" horiz-adv-x="733" d="M41 487L59 571L688 879L668 766L174 520L571 324L547 207L41 487Z" />
<glyph unicode="=" glyph-name="equal" horiz-adv-x="1052" d="M66 207L115 436H868L821 207H66ZM156 647L205 877H958L911 647H156Z" />
<glyph unicode="&gt;" glyph-name="greater" horiz-adv-x="702" d="M31 207L59 324L551 520L154 766L172 879L676 571L653 461L31 207Z" />
<glyph unicode="?" glyph-name="question" horiz-adv-x="901" d="M98 164Q98 234 147 279Q198 326 262 326Q330 326 377 279T424 164Q424 98 377 47Q332 0 262 0Q194 0 147 47Q98 96 98 164ZM113 1104Q113 1227 223 1331Q332 1433 543 1434Q738 1434 803 1370Q871
1305 870 1186Q870 1077 829 991Q788 907 725 852Q639 778 596 745Q526 692 469 627Q406 553 379 475H244Q244 555 281 629Q314 697 375 760L485 879Q538 938 578 1018Q617 1100 616 1182Q616 1252 584 1288Q553 1323 504 1323Q441 1323 391 1276Q340 1227 340
1153Q340 1114 360 1069Q380 1026 418 1018Q365 932 268 932Q205 932 160 977Q113 1024 113 1104Z" />
<glyph unicode="@" glyph-name="at" horiz-adv-x="1148" d="M-16 311Q-16 518 53 682Q125 852 227 944Q333 1040 440 1090Q553 1141 639 1141Q1006 1141 1006 844Q1006 619 897 449T653 279Q610 279 584 295Q531 248 424 248Q377 248 346 299Q315 352 315 408Q315
459 332 524Q346 583 383 682Q414 766 471 825T594 885Q637 885 662 850L670 881L784 868L692 475Q684 444 684 428Q684 389 711 389Q768 389 817 563Q868 745 868 844Q868 924 825 967T664 1010Q488 1010 349 811T209 334Q209 234 264 170T418 106Q617 106 711
201Q738 228 758 227Q776 227 807 203Q834 183 834 168Q834 158 823 145Q745 30 616 -25Q491 -78 354 -78Q204 -78 94 20T-16 311ZM449 434Q449 401 463 383Q475 369 522 369Q536 369 553 379V399Q553 427 559 442L645 784Q631 798 602 799Q539 799 494 668Q449
538 449 434Z" />
<glyph unicode="A" glyph-name="A" horiz-adv-x="1366" d="M18 696Q18 788 139 860T418 932Q471 932 539 926Q705 1192 895 1366Q1081 1538 1253 1538Q1343 1538 1417 1507L1096 0H801L958 743Q808 806 682 817Q561 555 492 305Q418 45 418 -117Q418 -144 422
-176Q426 -203 430 -207Q432 -209 435 -213T440 -219Q446 -225 446 -231Q387 -227 362 -225Q329 -221 291 -211Q250 -201 227 -174Q209 -154 190 -109Q172 -66 172 -2Q172 129 256 358Q342 594 473 817Q270 801 233 711Q241 711 250 690Q260 665 260 647Q260 610
229 590Q196 567 135 567Q86 567 51 598Q18 628 18 696ZM723 903Q862 878 977 834L1096 1391Q918 1294 723 903Z" />
<glyph unicode="B" glyph-name="B" horiz-adv-x="1298" d="M12 1004Q12 1205 241 1370T731 1536Q958 1536 1077 1442T1196 1208Q1196 1118 1141 1028Q1086 940 991 885Q1110 865 1169 770Q1226 680 1227 551Q1227 340 1104 154Q981 -34 819 -35Q760 -35 698 -27Q651
-21 616 12Q577 47 578 106Q578 155 604 236Q651 162 741 162Q821 162 883 281Q944 401 944 539Q944 648 897 719T758 791Q711 791 655 784L487 0H193L471 1303L774 1343L676 889H690Q811 889 897 995Q981 1099 981 1227Q981 1319 924 1382Q871 1441 756 1442Q506
1442 355 1309T203 944Q203 899 209 868Q215 835 223 823Q231 809 231 805Q122 805 66 852Q12 898 12 1004Z" />
<glyph unicode="C" glyph-name="C" horiz-adv-x="1015" d="M49 510Q49 653 68 788Q86 925 135 1063Q186 1208 260 1305Q340 1411 459 1473Q580 1536 739 1536Q893 1536 995 1468Q1095 1400 1096 1262Q1096 1074 952 1073Q878 1073 836 1126Q873 1136 899 1194Q926
1249 926 1294Q926 1319 920 1348Q914 1379 879 1409T784 1440Q665 1440 567 1293T420 944Q371 745 371 555Q371 344 426 258T641 172Q760 172 866 223Q968 272 1024 369L1071 348Q1030 239 965 168Q895 92 813 55Q725 16 655 2Q583 -12 498 -12T338 12Q260 39
197 90Q127 147 88 251T49 510Z" />
<glyph unicode="D" glyph-name="D" horiz-adv-x="1355" d="M12 1004Q12 1205 241 1370T731 1536Q1321 1536 1321 983Q1321 727 1243 489Q1167 260 1032 115Q901 -26 754 -27Q631 -27 504 82L487 0H193L471 1303L774 1343L528 195Q585 154 645 154Q762 154 854
295Q944 434 991 637Q1038 842 1038 1040Q1038 1251 981 1346Q922 1442 756 1442Q506 1442 355 1309T203 944Q203 899 209 868Q215 835 223 823Q231 809 231 805Q122 805 66 852Q12 898 12 1004Z" />
<glyph unicode="E" glyph-name="E" horiz-adv-x="937" d="M23 401Q23 559 121 688T393 854Q190 965 190 1165Q190 1315 313 1425T645 1536Q807 1536 913 1468Q1022 1400 1022 1262Q1022 1074 879 1073Q809 1073 762 1126Q799 1136 825 1194Q852 1249 852 1294Q852
1446 717 1446Q606 1446 537 1372Q467 1300 467 1194Q467 1094 532 1008Q602 916 737 856Q553 778 469 670Q381 557 381 444Q381 329 451 252Q521 172 621 172Q736 172 811 219Q885 264 944 369L991 348Q858 -12 446 -12Q241 -12 133 109Q23 231 23 401Z" />
<glyph unicode="F" glyph-name="F" horiz-adv-x="1011" d="M18 1004Q18 1113 57 1202Q96 1294 176 1370Q260 1450 395 1493Q532 1536 717 1536Q754 1536 870 1524T1057 1511Q1168 1511 1241 1536Q1233 1511 1225 1483Q1211 1436 1204 1421Q1188 1388 1176 1368Q1158
1337 1124 1319Q1085 1299 1047 1290Q941 1290 760 1329L659 858H975L934 707H627L475 0H180L475 1368Q344 1362 276 1268Q208 1172 209 944Q209 899 215 868Q221 835 229 823Q237 809 238 805Q129 805 72 852Q18 898 18 1004Z" />
<glyph unicode="G" glyph-name="G" horiz-adv-x="1181" d="M39 748Q39 947 123 1126Q203 1300 377 1419Q546 1536 764 1536Q924 1536 1034 1469T1145 1262Q1145 1074 1001 1073Q907 1073 860 1126Q894 1135 922 1194Q951 1255 950 1294Q950 1319 944 1348Q938
1379 903 1409T809 1440Q700 1440 592 1331Q486 1225 420 1057T354 731Q354 584 412 489Q471 393 592 393Q709 393 766 469L854 856H1118L950 86Q893 -174 780 -297Q663 -424 426 -424Q289 -424 215 -342Q141 -258 141 -141Q141 -27 209 55Q277 139 391 139Q422
139 459 135Q490 131 520 121Q557 107 573 80Q591 49 592 2Q592 -33 580 -80Q514 -27 457 -27Q387 -27 350 -74Q313 -119 313 -182Q313 -239 346 -280T442 -322Q516 -322 565 -270Q612 -219 647 -70L729 297Q590 223 479 223Q248 223 143 367Q39 511 39 748Z" />
<glyph unicode="H" glyph-name="H" horiz-adv-x="1290" d="M12 1004Q12 1205 241 1370T731 1536Q743 1536 813 1532L680 909Q825 936 885 936Q920 936 930 934L1057 1532H1352L1026 0H731L893 760Q838 780 762 780Q709 780 651 772L487 0H193L489 1393Q350 1334
276 1221Q202 1107 203 944Q203 899 209 868Q215 835 223 823Q231 809 231 805Q122 805 66 852Q12 898 12 1004Z" />
<glyph unicode="I" glyph-name="I" horiz-adv-x="768" d="M12 1004Q12 1205 241 1370T731 1536Q743 1536 813 1532L487 0H193L489 1391Q354 1332 279 1221Q203 1108 203 944Q203 899 209 868Q215 835 223 823Q231 809 231 805Q122 805 66 852Q12 898 12 1004Z" />
<glyph unicode="J" glyph-name="J" horiz-adv-x="1095" d="M35 -135Q35 -24 102 57T285 139Q316 139 352 135Q383 131 414 121Q451 107 467 80Q485 49 485 2Q485 -33 473 -80Q407 -27 350 -27Q280 -27 244 -72Q207 -119 207 -178Q207 -250 250 -287Q291 -322 346
-322Q422 -322 465 -271T541 -70L862 1393Q727 1336 649 1221Q573 1108 573 944Q573 899 580 868Q586 835 594 823Q602 809 602 805Q493 805 436 852Q383 897 383 1004Q383 1205 612 1370Q843 1536 1102 1536H1184L877 82Q826 -170 700 -297Q577 -424 338 -424Q195
-424 115 -344T35 -135Z" />
<glyph unicode="K" glyph-name="K" horiz-adv-x="1228" d="M12 1004Q12 1205 241 1370T731 1536Q743 1536 813 1532L678 905L776 1036L899 1200L1018 1358L1110 1479L1145 1526H1360L788 868Q825 872 862 872Q1116 872 1116 653Q1116 565 1067 381Q1016 188 1016
135Q1016 31 1096 0Q973 -35 893 -35Q733 -35 733 102Q733 168 788 365Q841 553 842 641Q842 778 719 778Q682 778 651 770L487 0H193L489 1393Q350 1334 276 1221Q202 1107 203 944Q203 899 209 868Q215 835 223 823Q231 809 231 805Q122 805 66 852Q12 898 12
1004Z" />
<glyph unicode="L" glyph-name="L" horiz-adv-x="800" d="M12 983Q12 1184 241 1350T731 1516Q743 1516 813 1511L498 41Q580 23 702 -45T948 -168T1186 -223Q1280 -223 1358 -190Q1343 -337 1284 -424Q1225 -512 1145 -512Q1063 -512 975 -465Q881 -414 799 -348L627
-211Q533 -139 436 -94Q336 -47 231 -47Q194 -47 184 -49L489 1370Q356 1313 279 1198Q203 1085 203 924Q203 879 209 848Q215 815 223 803Q231 789 231 784Q122 784 66 831Q12 877 12 983Z" />
<glyph unicode="M" glyph-name="M" horiz-adv-x="1605" d="M76 1004Q76 1127 174 1249T430 1450Q590 1528 741 1528Q821 1528 883 1507V328L1331 1507H1653L1331 0H1036L1241 969L852 0H571V874L301 0H137L596 1407Q438 1358 352 1237Q266 1118 266 944Q266 899
272 868Q278 835 287 823Q295 809 295 805Q186 805 129 852Q76 898 76 1004Z" />
<glyph unicode="N" glyph-name="N" horiz-adv-x="1435" d="M12 1004Q12 1205 241 1370T731 1536Q856 1536 887 1463T918 1155Q918 1003 907 807Q895 569 895 473Q895 313 915 250L1188 1532H1483L1157 0H862Q743 0 743 418Q743 516 750 739Q758 1038 758 1071Q758
1175 754 1253L487 0H193L489 1393Q350 1334 276 1221Q202 1107 203 944Q203 899 209 868Q215 835 223 823Q231 809 231 805Q122 805 66 852Q12 898 12 1004Z" />
<glyph unicode="O" glyph-name="O" horiz-adv-x="1345" d="M12 1004Q12 1205 241 1370T731 1536Q1026 1536 1159 1397T1292 981Q1292 823 1247 655Q1200 481 1124 332Q1046 180 930 82Q811 -18 680 -18Q475 -18 367 90Q261 196 260 444Q260 598 287 750Q316 916
365 1044Q416 1181 504 1272Q590 1360 698 1360Q735 1360 795 1343Q519 978 518 485Q518 346 559 248Q598 154 680 154Q766 154 854 291Q944 430 999 633T1055 1024Q1055 1130 1044 1186Q1030 1260 1004 1315Q971 1378 911 1409Q845 1442 756 1442Q506 1442 355
1309T203 944Q203 899 209 868Q215 835 223 823Q231 809 231 805Q122 805 66 852Q12 898 12 1004Z" />
<glyph unicode="P" glyph-name="P" horiz-adv-x="1171" d="M12 1004Q12 1205 241 1370T731 1536Q971 1536 1092 1421Q1215 1304 1214 1133Q1214 922 1049 754Q883 584 623 584H612L487 0H193L471 1303L774 1343L629 659Q776 671 881 831Q987 995 987 1163Q987
1288 924 1364Q858 1442 733 1442Q481 1442 342 1311T203 944Q203 899 209 868Q215 835 223 823Q231 809 231 805Q122 805 66 852Q12 898 12 1004Z" />
<glyph unicode="Q" glyph-name="Q" horiz-adv-x="1345" d="M12 1004Q12 1205 241 1370T731 1536Q1026 1536 1159 1397T1292 981Q1292 756 1196 496Q1102 240 948 98Q1009 14 1057 -20Q1110 -59 1196 -59L1241 -55Q1204 -155 1153 -193Q1098 -232 1030 -231Q915
-231 860 -170Q809 -113 774 -4Q725 -18 680 -18Q240 -18 240 455Q240 602 270 758Q301 918 352 1049Q405 1186 494 1274Q580 1360 682 1360Q719 1360 774 1343Q498 978 498 487Q498 389 520 303Q588 321 643 322Q744 322 815 260Q911 383 983 604T1055 1024Q1055
1130 1044 1186Q1030 1260 1004 1315Q971 1378 911 1409Q845 1442 756 1442Q506 1442 355 1309T203 944Q203 899 209 868Q215 835 223 823Q231 809 231 805Q122 805 66 852Q12 898 12 1004ZM543 240Q586 154 659 154Q686 154 713 168Q670 246 592 246Q571 246 543
240Z" />
<glyph unicode="R" glyph-name="R" horiz-adv-x="1228" d="M12 1004Q12 1205 241 1370T731 1536Q958 1536 1077 1442T1196 1208Q1196 1116 1137 1016Q1082 924 975 858Q1116 819 1116 653Q1116 565 1067 379Q1016 184 1016 135Q1016 31 1096 0Q973 -35 893 -35Q733
-35 733 102Q733 163 786 364T840 641Q840 780 717 780Q682 780 651 772L487 0H193L471 1303L774 1343L672 868H690Q811 868 897 983Q981 1094 981 1227Q981 1319 924 1382Q871 1441 756 1442Q506 1442 355 1309T203 944Q203 899 209 868Q215 835 223 823Q231 809
231 805Q122 805 66 852Q12 898 12 1004Z" />
<glyph unicode="S" glyph-name="S" horiz-adv-x="1165" d="M70 319Q70 454 158 534T371 614Q515 614 537 510Q412 502 355 447T297 285Q297 189 358 139Q421 88 500 88Q615 88 670 172Q725 255 725 381Q725 473 692 551T610 684L504 797L397 903Q352 948 315 1018Q282
1081 283 1155Q283 1315 432 1425Q583 1536 770 1536Q1114 1536 1114 1290Q1114 1200 1067 1141Q1022 1084 944 1083Q889 1083 852 1126Q893 1151 918 1200Q945 1253 944 1303Q944 1361 907 1401Q870 1440 795 1440Q711 1440 658 1393T604 1262Q604 1190 639 1124Q674
1056 723 1014L834 913Q889 864 946 803Q995 750 1030 659Q1065 567 1065 465Q1065 248 918 119T522 -10Q463 -10 410 -4Q344 4 293 20Q225 43 180 76T103 172T70 319Z" />
<glyph unicode="T" glyph-name="T" horiz-adv-x="983" d="M12 1001Q12 1110 51 1200Q90 1292 170 1368Q254 1448 389 1491Q528 1534 711 1534Q740 1534 930 1516Q1100 1500 1237 1499Q1397 1499 1473 1530Q1469 1522 1458 1470Q1454 1452 1438 1397Q1430 1372
1409 1333Q1391 1300 1358 1282Q1327 1266 1278 1266Q1202 1266 899 1319L616 0H322L612 1354Q417 1354 309 1268Q203 1182 203 942Q203 897 209 867T223 822T231 803Q122 803 66 850Q12 895 12 1001Z" />
<glyph unicode="U" glyph-name="U" horiz-adv-x="1386" d="M12 1004Q12 1205 241 1370T731 1536Q844 1536 885 1526Q746 1344 633 1032Q518 717 518 485Q518 346 559 248Q598 154 680 154Q789 154 879 311L1141 1532H1434L1108 0H813L836 106Q721 2 637 2Q451
2 355 102T258 436Q258 676 344 975Q428 1268 584 1423Q408 1380 305 1257Q203 1132 203 944Q203 899 209 868Q215 835 223 823Q231 809 231 805Q122 805 66 852Q12 898 12 1004Z" />
<glyph unicode="V" glyph-name="V" horiz-adv-x="1257" d="M12 1004Q12 1205 241 1370T731 1536Q743 1536 813 1532L831 272L1262 1526H1405L836 0H541V1399Q375 1346 289 1231Q203 1114 203 944Q203 899 209 868Q215 835 223 823Q231 809 231 805Q122 805 66
852Q12 898 12 1004Z" />
<glyph unicode="W" glyph-name="W" horiz-adv-x="1984" d="M12 1004Q12 1205 241 1370T731 1536Q743 1536 813 1532L831 272L1262 1526H1522V272L1970 1526H2114L1544 0H1249V1042L836 0H541V1399Q375 1346 289 1231Q203 1114 203 944Q203 899 209 868Q215 835
223 823Q231 809 231 805Q122 805 66 852Q12 898 12 1004Z" />
<glyph unicode="X" glyph-name="X" horiz-adv-x="1267" d="M12 1004Q12 1205 241 1370T731 1536Q743 1536 813 1532L901 1106L1139 1526H1282L938 930L1130 0H805L696 512L399 0H274L659 680L508 1399Q363 1346 283 1229T203 944Q203 899 209 868Q215 835 223
823Q231 809 231 805Q122 805 66 852Q12 898 12 1004Z" />
<glyph unicode="Y" glyph-name="Y" horiz-adv-x="1267" d="M12 1004Q12 1205 241 1370T731 1536Q743 1536 813 1532L991 799L1294 1526H1430L1032 631L897 0H569L705 631L508 1399Q363 1346 283 1229T203 944Q203 899 209 868Q215 835 223 823Q231 809 231 805Q122
805 66 852Q12 898 12 1004Z" />
<glyph unicode="Z" glyph-name="Z" horiz-adv-x="1083" d="M23 0L752 1450Q625 1454 547 1454Q379 1454 379 1409Q394 1409 403 1391Q413 1371 414 1350Q414 1227 285 1227Q244 1227 215 1262Q188 1295 188 1346Q188 1430 250 1483Q313 1536 428 1536H1130L418
119Q545 115 715 115Q828 115 827 160Q815 160 803 176T791 217Q791 342 922 342Q963 342 991 307Q1018 274 1018 223Q1018 135 948 68Q876 0 762 0H23Z" />
<glyph unicode="[" glyph-name="bracketleft" horiz-adv-x="817" d="M-49 -512L385 1536H780L754 1411H506L125 -385H373L346 -512H-49Z" />
<glyph unicode="\" glyph-name="backslash" horiz-adv-x="739" d="M86 1536H233L668 -512H520L86 1536Z" />
<glyph unicode="]" glyph-name="bracketright" horiz-adv-x="817" d="M-49 -512L-23 -387H225L606 1409H358L385 1536H780L346 -512H-49Z" />
<glyph unicode="^" glyph-name="asciicircum" horiz-adv-x="860" d="M102 1149L537 1536H580L702 1149H637L514 1313L193 1149H102Z" />
<glyph unicode="_" glyph-name="underscore" horiz-adv-x="907" d="M74 0L111 162H827L793 0H74Z" />
<glyph unicode="`" glyph-name="grave" horiz-adv-x="409" d="M49 1536H264L324 1149H170L49 1536Z" />
<glyph unicode="a" glyph-name="a" horiz-adv-x="1028" d="M-37 141T-37 247T-20 465Q-6 565 35 672Q74 774 133 852Q191 929 287 975Q385 1022 500 1022Q578 1022 637 971L649 1024H944L797 328Q789 287 788 264Q788 186 891 186Q924 186 958 207Q999 232 1024
250Q1052 272 1098 311Q1143 352 1161 367H1231Q1229 365 1225 360T1206 339T1163 295Q1085 215 1063 193Q1049 181 961 104Q902 55 846 27Q793 0 745 0Q532 0 496 156Q373 -12 217 -12Q80 -12 23 63Q-37 141 -37 247ZM240 303Q240 158 358 158Q417 158 489 260Q492
291 502 328L616 870Q573 907 516 907Q403 907 322 715Q240 524 240 303Z" />
<glyph unicode="b" glyph-name="b" horiz-adv-x="878" d="M-37 227Q-37 272 -25 328L203 1393L506 1434L408 969Q490 1028 584 1028Q721 1028 782 950T844 768Q844 647 809 512Q774 375 711 260Q645 139 539 68Q430 -6 301 -6Q-37 -6 -37 227ZM254 215Q254 168
274 154T344 139Q424 139 487 264Q553 391 584 530Q615 667 614 754Q614 838 580 872Q547 905 498 905Q475 905 440 897Q403 889 387 877L270 328Q254 246 254 215Z" />
<glyph unicode="c" glyph-name="c" horiz-adv-x="735" d="M-27 336Q-27 424 -10 522Q6 618 45 709Q86 803 143 872T293 985Q389 1030 500 1030Q725 1030 725 889Q725 858 715 821Q692 833 664 834Q639 834 598 821Q608 862 608 879Q608 949 532 948Q413 948 332
764Q250 582 250 393Q250 291 281 231Q312 174 399 174Q583 174 756 367H825Q794 330 766 289Q733 242 682 186Q649 149 584 98Q523 49 440 25Q356 0 254 0Q-27 0 -27 336Z" />
<glyph unicode="d" glyph-name="d" horiz-adv-x="1042" d="M-37 141T-37 247T-20 465Q-6 565 35 672Q74 774 133 852Q191 929 287 975Q385 1022 500 1022Q578 1022 637 971L727 1393L1030 1434L797 328L786 262Q786 186 889 186Q922 186 956 207Q997 232 1022
250Q1050 272 1096 311Q1141 352 1159 367H1229Q1227 365 1223 360T1204 339T1161 295Q1083 215 1061 193Q1047 181 958 104Q903 57 842 27Q789 0 743 0Q532 0 496 156Q373 -12 217 -12Q80 -12 23 63Q-37 141 -37 247ZM240 303Q240 158 358 158Q417 158 489 260Q492
291 502 328L616 870Q573 907 516 907Q403 907 322 715Q240 524 240 303Z" />
<glyph unicode="e" glyph-name="e" horiz-adv-x="724" d="M-37 326Q-37 435 -12 549Q15 670 63 780Q114 897 215 969Q315 1043 446 1042Q708 1042 709 829Q709 653 563 545Q413 432 246 412Q240 363 240 324Q240 234 289 191T408 147Q488 147 594 227Q696 303
752 418H844Q744 240 596 119Q451 0 266 0Q123 0 43 92T-37 326ZM262 510Q399 514 492 608Q582 702 586 819Q586 934 514 934Q459 934 408 866Q359 800 319 707Q285 621 262 510Z" />
<glyph unicode="f" glyph-name="f" horiz-adv-x="552" d="M-414 -291Q-414 -225 -387 -172Q-362 -121 -307 -88Q-235 -45 -203 -31Q-144 -6 -61 16L186 1186Q260 1534 559 1534Q659 1534 729 1473Q801 1412 801 1313Q801 1266 795 1229H698Q702 1282 702 1284Q702
1317 680 1335Q660 1353 625 1354Q582 1354 541 1317T481 1186L446 1024H596L582 942H430L195 -164Q117 -512 -172 -512Q-268 -512 -342 -449Q-414 -387 -414 -291ZM-301 -262Q-301 -287 -276 -307Q-249 -330 -219 -330Q-136 -330 -102 -170L-76 -51Q-191 -90 -244
-135Q-301 -184 -301 -262Z" />
<glyph unicode="g" glyph-name="g" horiz-adv-x="1011" d="M-51 270Q-51 368 -37 457Q-19 570 12 657Q47 757 104 840Q157 918 250 971Q338 1022 455 1022Q568 1022 616 926L639 1024H934L741 117Q970 236 1057 430L1049 268Q1031 174 944 113Q860 54 717 0L682
-164Q608 -512 313 -512Q213 -512 150 -461Q84 -408 84 -313Q84 -200 168 -135Q250 -72 418 -10L438 82Q332 -16 203 -16Q72 -16 11 71T-51 270ZM197 -285Q197 -308 217 -332Q235 -352 266 -352Q300 -352 334 -303Q367 -256 385 -170L397 -109Q197 -187 197 -285ZM201
309Q201 180 350 180Q405 180 473 252L594 819Q549 907 477 907Q387 907 320 791T227 545Q201 405 201 309Z" />
<glyph unicode="h" glyph-name="h" horiz-adv-x="1052" d="M-90 0L207 1393L510 1434L399 915Q555 1024 666 1024Q754 1024 827 946Q901 869 901 768Q901 739 897 719L813 328Q803 283 803 262Q803 186 905 186Q938 186 973 207Q1014 232 1038 250Q1066 272 1112
311L1176 367H1245L1176 295Q1098 215 1075 193Q1038 158 975 104Q920 57 858 27Q805 0 760 0Q506 0 506 223Q506 269 518 328L596 696Q602 725 602 750Q602 805 576 837T508 870Q442 870 381 827L205 0H-90Z" />
<glyph unicode="i" glyph-name="i" horiz-adv-x="548" d="M-29 223Q-29 269 -16 328L131 1024H426L279 328Q271 287 270 264Q270 186 373 186Q406 186 440 207Q481 232 506 250Q534 272 580 311Q625 352 643 367H713Q711 365 707 360T687 339T645 295Q567 215
545 193Q531 181 442 104Q387 57 326 27Q273 0 227 0Q-29 0 -29 223ZM170 1294Q170 1357 217 1409Q262 1458 332 1458Q400 1458 449 1409Q496 1362 496 1294Q496 1224 449 1180Q398 1133 332 1133Q264 1133 217 1179T170 1294Z" />
<glyph unicode="j" glyph-name="j" horiz-adv-x="450" d="M-457 -291Q-457 -221 -432 -172Q-409 -125 -350 -86Q-301 -53 -242 -29Q-195 -11 -104 16L111 1024H406L215 127Q438 233 528 430L520 268Q502 184 418 127Q340 74 195 33L154 -164Q80 -512 -215 -512Q-311
-512 -385 -449Q-457 -387 -457 -291ZM-344 -262Q-344 -287 -319 -307Q-292 -330 -262 -330Q-225 -330 -193 -293Q-164 -262 -143 -170L-119 -51Q-234 -90 -287 -135Q-344 -184 -344 -262ZM133 1298Q133 1361 180 1413Q225 1462 295 1462Q361 1462 410 1413T459
1298Q459 1228 410 1184Q359 1137 295 1137Q227 1137 180 1183T133 1298Z" />
<glyph unicode="k" glyph-name="k" horiz-adv-x="999" d="M-84 0L213 1393L516 1434L362 717L530 850L692 975Q712 991 727 1003T750 1021T758 1024H979L563 743Q590 749 616 750Q700 750 778 672Q854 596 854 496Q854 469 848 444L819 328Q809 287 809 262Q809
186 911 186Q946 186 985 215Q1022 243 1071 295Q1116 342 1147 367H1217Q1190 340 1130 272L1014 145Q967 94 893 47Q821 0 766 0Q645 0 578 55T510 219Q510 276 524 328L547 422Q553 451 553 475Q553 530 527 563T459 596Q393 596 328 551L211 0H-84Z" />
<glyph unicode="l" glyph-name="l" horiz-adv-x="583" d="M-12 223Q-12 269 0 328L227 1393L530 1434L295 328Q285 271 285 262Q285 186 387 186Q420 186 455 207Q496 232 520 250Q548 272 594 311Q639 352 657 367H727Q725 365 721 360T702 339T659 295Q598 229
557 193Q520 158 457 104Q398 55 342 27Q289 0 242 0Q-12 0 -12 223Z" />
<glyph unicode="m" glyph-name="m" horiz-adv-x="1521" d="M-88 0L129 1024H424L401 915Q553 1024 666 1024Q721 1024 778 985Q833 948 868 889Q1036 1024 1167 1024Q1253 1024 1327 946Q1403 866 1403 766Q1403 764 1399 719L1315 328Q1305 283 1305 252Q1305
168 1389 168Q1490 168 1604 377H1700L1636 299L1548 195Q1536 181 1460 104Q1403 47 1358 25Q1309 0 1262 0Q1008 0 1008 223Q1008 269 1020 328L1098 696Q1104 725 1104 750Q1104 805 1078 837T1010 870Q953 870 891 834Q901 789 901 762Q901 756 897 719L745
0H449L596 696Q602 725 602 750Q602 805 576 837T508 870Q445 870 383 827L207 0H-88Z" />
<glyph unicode="n" glyph-name="n" horiz-adv-x="1028" d="M-74 0L143 1024H438L414 913Q566 1024 682 1024Q770 1024 844 946Q918 869 918 768Q918 739 913 719L829 328Q819 287 819 262Q819 186 922 186Q959 186 985 201Q1013 216 1053 256Q1088 291 1116 315H1186Q1182
311 1172 300T1144 269T1108 229Q1043 158 1004 119Q967 82 897 39Q834 0 776 0Q522 0 522 223Q522 269 535 328L612 696Q618 725 618 750Q618 805 592 837T524 870Q459 870 395 827L221 0H-74Z" />
<glyph unicode="o" glyph-name="o" horiz-adv-x="854" d="M-14 324Q-14 678 141 862Q295 1044 524 1044Q762 1044 772 743Q790 725 831 725Q886 725 958 772Q1034 821 1047 825L1055 782Q955 655 766 602Q737 309 602 150Q465 -12 299 -12T59 66Q-14 143 -14 324ZM258
342Q258 254 293 221Q332 186 395 186Q454 186 501 245T575 389Q602 471 614 582Q569 582 549 608T528 674Q528 719 553 762Q576 801 618 817Q610 923 532 924Q462 924 410 858Q351 784 322 694Q289 590 274 504Q258 405 258 342Z" />
<glyph unicode="p" glyph-name="p" horiz-adv-x="929" d="M-197 -512L129 1024H424L416 985Q488 1022 559 1022Q721 1022 796 957T872 735Q872 672 860 592Q774 2 412 2Q318 2 219 63L113 -438L-197 -512ZM246 190Q295 153 379 154Q456 154 502 240Q543 318 598
567Q625 694 625 774Q625 862 596 891Q565 922 510 922Q458 922 393 879L246 190Z" />
<glyph unicode="q" glyph-name="q" horiz-adv-x="972" d="M-29 225Q-29 573 123 799Q273 1022 494 1022Q617 1022 653 967L666 1024H961L649 -438L340 -512L502 250Q359 8 199 8Q95 8 33 63T-29 225ZM229 291Q229 221 242 188Q254 153 297 154Q379 154 528 377L600
717Q618 809 618 846Q618 932 539 932Q463 932 389 834Q315 738 272 586Q229 438 229 291Z" />
<glyph unicode="r" glyph-name="r" horiz-adv-x="802" d="M-66 0L152 1024H446L424 922Q557 1024 666 1024Q734 1024 774 987Q813 950 813 893Q813 834 770 784Q725 733 659 733Q618 733 600 754Q584 774 580 801Q576 832 569 846Q559 869 541 868Q471 868 399
803L229 0H-66Z" />
<glyph unicode="s" glyph-name="s" horiz-adv-x="829" d="M-18 268Q-18 387 27 457Q74 531 137 532Q225 694 293 1004L590 1065V1036Q590 895 625 772Q643 704 694 553Q729 449 729 356Q729 323 727 313Q799 374 860 446L913 377L692 190Q602 0 332 0Q148 0 66
61Q-18 123 -18 268ZM86 295Q86 121 260 121Q319 121 374 188T430 365Q430 410 383 563Q336 715 334 856Q334 854 329 838T315 788T293 715Q250 572 227 522Q295 499 295 408Q295 351 256 314T160 276Q123 277 86 295Z" />
<glyph unicode="t" glyph-name="t" horiz-adv-x="595" d="M-2 223Q-2 278 25 406Q80 672 90 715Q130 890 139 942H72L88 1024H156L217 1307L520 1348L451 1024H573L557 942H434Q295 301 295 264Q295 186 397 186Q430 186 465 207Q506 232 530 250Q558 272 604
311L668 367H737L668 295Q590 215 567 193Q530 158 467 104Q408 55 352 27Q299 0 252 0Q-2 0 -2 223Z" />
<glyph unicode="u" glyph-name="u" horiz-adv-x="1062" d="M-29 223Q-29 269 -16 328L131 1024H426L279 328Q271 287 270 264Q270 186 373 186Q426 186 518 260Q521 291 530 328L678 1024H973L825 328Q817 287 817 264Q817 186 920 186Q953 186 987 207Q1028 232
1053 250Q1081 272 1126 311L1190 367H1260Q1258 365 1254 360T1234 339T1192 295Q1131 229 1090 193Q1053 158 989 104Q930 55 874 27Q821 0 774 0Q550 0 522 172Q338 0 227 0Q-29 0 -29 223Z" />
<glyph unicode="v" glyph-name="v" horiz-adv-x="849" d="M-27 223Q-27 286 -16 328L131 1024H426L279 328Q269 277 268 252Q268 186 346 186Q440 186 520 309Q606 440 643 586Q684 744 684 858Q661 850 641 850Q600 850 578 885T555 965Q555 998 590 1032Q623
1065 672 1065Q733 1065 768 1016Q803 965 803 881Q803 748 770 608Q735 461 672 322T492 90Q377 0 227 0Q-27 0 -27 223Z" />
<glyph unicode="w" glyph-name="w" horiz-adv-x="1372" d="M-31 223Q-31 269 -18 328L129 1024H424L276 328Q268 287 268 264Q268 186 371 186Q426 186 514 258Q514 283 524 328L672 1024H967L819 328Q809 277 809 252Q809 186 887 186Q983 186 1063 309Q1145
434 1184 586Q1225 744 1225 858Q1202 850 1182 850Q1141 850 1119 885T1096 965Q1096 998 1130 1032Q1163 1065 1212 1065Q1273 1065 1309 1016Q1344 965 1343 881Q1343 748 1311 608Q1276 461 1212 322Q1149 185 1030 90Q915 0 768 0Q549 0 518 170Q330 0 225
0Q-31 0 -31 223Z" />
<glyph unicode="x" glyph-name="x" horiz-adv-x="745" d="M-109 180Q0 254 154 412L20 1024H315L420 543Q500 615 559 705Q614 791 618 862Q585 858 584 858Q488 858 487 973Q487 1022 526 1047Q569 1074 627 1073Q680 1073 710 1024T741 901Q741 741 442 436L469
317Q471 305 489 244Q495 221 520 203Q543 187 590 186Q623 186 657 207Q698 232 723 250Q751 272 797 311Q842 352 860 367H930Q928 365 924 360T905 339T862 295Q784 215 762 193Q748 181 659 104Q604 57 543 27Q490 0 444 0Q311 0 264 57Q217 112 174 317L172
324L61 229L-70 119L-109 180Z" />
<glyph unicode="y" glyph-name="y" horiz-adv-x="1042" d="M-29 223Q-29 269 -16 328L131 1024H426L279 328Q271 287 270 264Q270 186 373 186Q431 186 526 266L688 1024H983L793 127Q1016 233 1106 430L1098 268Q1080 180 996 127T772 33L731 -164Q657 -512 362
-512Q266 -512 193 -449Q121 -388 121 -291Q121 -225 147 -172Q172 -123 227 -86Q280 -51 334 -29Q375 -13 473 16L502 156Q334 0 227 0Q-29 0 -29 223ZM233 -262Q233 -287 258 -307Q285 -330 315 -330Q352 -330 385 -293T434 -170L459 -51Q344 -90 291 -135Q233
-184 233 -262Z" />
<glyph unicode="z" glyph-name="z" horiz-adv-x="782" d="M-96 0L442 938Q315 942 293 942Q180 942 180 897Q195 897 205 879Q215 859 215 838Q215 715 86 715Q45 715 16 750Q-11 783 -10 834Q-10 918 51 971Q114 1024 229 1024H780L242 86Q369 82 391 82Q504
82 504 127Q492 127 480 143T467 184Q467 309 598 309Q639 309 668 274Q695 241 694 190Q694 106 633 53Q570 0 455 0H-96Z" />
<glyph unicode="{" glyph-name="braceleft" horiz-adv-x="718" d="M61 -287Q61 -187 170 37Q281 266 301 358Q307 383 307 403Q307 466 223 467Q194 467 158 461L182 578Q219 572 246 571Q293 571 322 592Q353 615 365 651Q379 696 381 721Q383 741 383 799T377
965Q369 1108 369 1124Q369 1208 397 1300Q426 1390 506 1464Q584 1536 696 1536H784L766 1434Q686 1434 651 1425Q612 1417 580 1380Q492 1280 485 1098L498 748Q492 584 416 520Q441 492 440 446Q440 354 319 104Q196 -152 197 -254Q197 -418 371 -418L352 -510H334Q228
-510 184 -496Q135 -480 100 -424Q61 -367 61 -287Z" />
<glyph unicode="|" glyph-name="bar" horiz-adv-x="1087" d="M449 -512V1538H639V-512H449Z" />
<glyph unicode="}" glyph-name="braceright" horiz-adv-x="718" d="M61 -510L80 -408Q160 -408 195 -399Q234 -391 266 -354Q358 -250 360 -72L348 279Q354 443 430 506Q405 534 406 580Q406 668 528 922Q649 1172 649 1280Q649 1444 475 1444L494 1536H512Q618
1536 662 1522Q711 1506 745 1450Q784 1391 784 1313Q784 1213 676 989Q565 760 545 668Q539 643 539 623Q539 560 623 559Q648 559 688 565L664 449Q627 455 600 455Q553 455 524 434Q493 411 481 375Q471 340 467 305Q463 264 463 227Q463 169 469 61Q477 -82
477 -98Q477 -184 449 -276Q422 -364 342 -438Q264 -510 150 -510H61Z" />
<glyph unicode="~" glyph-name="asciitilde" horiz-adv-x="880" d="M100 1192Q202 1393 442 1393Q524 1393 623 1360Q727 1325 780 1325Q866 1325 909 1372L922 1370Q904 1293 805 1229Q709 1166 592 1165Q522 1165 412 1202Q295 1241 248 1241Q172 1241 113 1188L100
1192Z" />
</font>
</defs>
</svg>
